<svg id="Layer_1" data-name="Layer 1" xmlns="http://www.w3.org/2000/svg" viewBox="0 0 300 300"><defs><style>.cls-1{fill:#f05123;}</style></defs><title>-icon-color</title><path class="cls-1" d="M86,34.23V71.86c0,6.34,5.34,15.73,10.78,19l71.83,42.55,42.11-24.95Zm82.61,132.68L96.72,209.56c-5.45,3.24-10.8,12.62-10.8,19v37.29l124.75-74ZM81.3,297.5c-12,0-24.25-9.31-24.25-27.14V228.53c0-16.55,10.74-35.35,25-43.78l58.31-34.59L82.09,115.64c-14.2-8.43-24.92-27.24-24.92-43.78V29.65c0-17.81,12.16-27.15,24.2-27.15A30,30,0,0,1,96.82,7.09L228.53,85.43c9.17,5.45,14.42,13.86,14.42,23s-5.27,17.58-14.44,23l-31.58,18.68,31.55,18.67c9.2,5.46,14.47,13.85,14.47,23s-5.27,17.56-14.47,23L96.72,293A30,30,0,0,1,81.3,297.5"/></svg>